<svg xmlns="http://www.w3.org/2000/svg" xmlns:xlink="http://www.w3.org/1999/xlink" width="500" zoomAndPan="magnify" viewBox="0 0 375 374.999991" height="500" preserveAspectRatio="xMidYMid meet" version="1.0"><defs><g/><clipPath id="7d639677fe"><path d="M 83.328125 83.328125 L 291.828125 83.328125 L 291.828125 291.828125 L 83.328125 291.828125 Z M 83.328125 83.328125 " clip-rule="nonzero"/></clipPath><clipPath id="ef82a87710"><path d="M 88.5 88.5 L 286.5 88.5 L 286.5 286.5 L 88.5 286.5 Z M 88.5 88.5 " clip-rule="nonzero"/></clipPath></defs><g clip-path="url(#7d639677fe)"><path fill="#192d5a" d="M 285.378906 215.375 C 282.734375 224.375 278.699219 232.910156 273.691406 240.773438 C 269.554688 247.171875 264.855469 253.1875 259.570312 258.660156 C 258.886719 259.40625 258.125 260.074219 257.398438 260.78125 C 256.660156 261.472656 255.945312 262.1875 255.191406 262.863281 L 251.757812 265.851562 L 250.570312 266.796875 L 248.195312 268.691406 C 247.394531 269.304688 246.5625 269.886719 245.75 270.488281 C 244.140625 271.71875 242.429688 272.800781 240.753906 273.941406 C 240.511719 274.105469 240.257812 274.273438 239.996094 274.453125 C 239.722656 274.617188 239.4375 274.785156 239.140625 274.964844 C 238.550781 275.316406 237.914062 275.699219 237.238281 276.101562 C 235.898438 276.945312 234.316406 277.734375 232.605469 278.644531 C 232.175781 278.867188 231.742188 279.109375 231.289062 279.328125 C 230.832031 279.539062 230.367188 279.753906 229.890625 279.976562 C 228.941406 280.414062 227.957031 280.871094 226.941406 281.339844 C 224.855469 282.152344 222.683594 283.132812 220.316406 283.890625 C 210.964844 287.28125 199.292969 289.378906 187.578125 289.425781 C 175.863281 289.378906 164.191406 287.28125 154.839844 283.890625 C 152.472656 283.132812 150.300781 282.152344 148.214844 281.339844 C 147.199219 280.871094 146.214844 280.414062 145.265625 279.976562 C 144.789062 279.753906 144.324219 279.539062 143.867188 279.328125 C 143.414062 279.109375 142.980469 278.867188 142.550781 278.644531 C 140.839844 277.738281 139.257812 276.945312 137.917969 276.105469 C 137.242188 275.699219 136.605469 275.316406 136.015625 274.964844 C 135.71875 274.789062 135.433594 274.617188 135.160156 274.453125 C 134.898438 274.273438 134.644531 274.105469 134.402344 273.941406 C 128.039062 269.773438 122.058594 265.035156 116.625 259.714844 C 110.894531 253.988281 105.882812 247.574219 101.464844 240.777344 C 96.457031 232.914062 92.421875 224.375 89.777344 215.375 C 87.027344 206.40625 85.753906 196.992188 85.671875 187.578125 C 85.753906 178.164062 87.027344 168.75 89.777344 159.78125 C 92.421875 150.78125 96.457031 142.246094 101.464844 134.378906 C 105.601562 127.980469 110.300781 121.96875 115.585938 116.496094 C 116.269531 115.75 117.03125 115.082031 117.757812 114.375 C 118.492188 113.683594 119.210938 112.96875 119.964844 112.292969 L 122.253906 110.300781 L 123.398438 109.300781 L 124.585938 108.359375 L 126.957031 106.464844 C 127.761719 105.851562 128.589844 105.269531 129.40625 104.667969 C 131.011719 103.4375 132.726562 102.351562 134.402344 101.214844 C 134.640625 101.050781 134.894531 100.882812 135.160156 100.703125 C 135.433594 100.539062 135.71875 100.367188 136.011719 100.191406 C 136.605469 99.835938 137.242188 99.457031 137.917969 99.050781 C 139.257812 98.210938 140.839844 97.417969 142.550781 96.511719 C 142.980469 96.289062 143.410156 96.046875 143.867188 95.828125 C 144.324219 95.617188 144.789062 95.398438 145.265625 95.179688 C 146.214844 94.742188 147.199219 94.285156 148.214844 93.816406 C 150.300781 93 152.472656 92.023438 154.839844 91.265625 C 164.191406 87.875 175.863281 85.777344 187.578125 85.730469 C 199.289062 85.777344 210.964844 87.875 220.316406 91.265625 C 222.683594 92.023438 224.855469 93 226.941406 93.816406 C 227.957031 94.285156 228.941406 94.742188 229.890625 95.179688 C 230.367188 95.398438 230.832031 95.617188 231.289062 95.828125 C 231.742188 96.046875 232.175781 96.289062 232.605469 96.511719 C 234.3125 97.417969 235.898438 98.210938 237.238281 99.050781 C 237.914062 99.457031 238.550781 99.835938 239.140625 100.191406 C 239.4375 100.367188 239.722656 100.539062 239.992188 100.703125 C 240.257812 100.878906 240.511719 101.050781 240.753906 101.214844 C 247.117188 105.382812 253.09375 110.121094 258.527344 115.441406 C 264.261719 121.167969 269.269531 127.578125 273.6875 134.378906 C 278.699219 142.242188 282.734375 150.78125 285.378906 159.78125 C 288.128906 168.75 289.402344 178.164062 289.484375 187.578125 C 289.402344 196.992188 288.128906 206.40625 285.378906 215.375 Z M 291.828125 187.507812 L 291.824219 187.5 C 291.738281 177.886719 290.445312 168.269531 287.644531 159.097656 C 284.953125 149.898438 280.828125 141.167969 275.683594 133.148438 L 273.214844 129.429688 C 273.214844 129.429688 272.5 128.433594 271.425781 126.933594 C 270.394531 125.402344 268.816406 123.519531 267.308594 121.582031 C 265.683594 119.738281 264.125 117.839844 262.8125 116.542969 C 261.539062 115.214844 260.691406 114.328125 260.691406 114.328125 C 260.691406 114.328125 260.476562 114.109375 260.089844 113.738281 C 259.703125 113.363281 259.152344 112.832031 258.492188 112.191406 C 257.199219 110.875 255.324219 109.292969 253.484375 107.664062 C 252.542969 106.882812 251.570312 106.128906 250.675781 105.410156 C 250.222656 105.050781 249.789062 104.703125 249.375 104.375 C 248.949219 104.066406 248.542969 103.777344 248.171875 103.507812 C 246.679688 102.429688 245.683594 101.710938 245.683594 101.710938 C 245.683594 101.710938 245.464844 101.535156 245.117188 101.308594 C 244.769531 101.074219 244.304688 100.765625 243.84375 100.457031 C 242.917969 99.835938 241.988281 99.214844 241.988281 99.214844 C 241.742188 99.050781 241.484375 98.875 241.214844 98.691406 C 240.933594 98.523438 240.644531 98.347656 240.34375 98.164062 C 239.738281 97.800781 239.085938 97.410156 238.394531 96.996094 C 237.027344 96.132812 235.410156 95.320312 233.660156 94.386719 C 233.21875 94.160156 232.777344 93.910156 232.3125 93.6875 C 231.847656 93.46875 231.367188 93.246094 230.882812 93.019531 C 229.910156 92.570312 228.902344 92.105469 227.863281 91.621094 C 225.734375 90.785156 223.507812 89.785156 221.085938 89.003906 C 211.515625 85.527344 199.5625 83.375 187.578125 83.328125 C 175.59375 83.375 163.640625 85.527344 154.070312 89.007812 C 151.644531 89.785156 149.421875 90.785156 147.292969 91.621094 C 146.25 92.105469 145.246094 92.570312 144.273438 93.023438 C 143.785156 93.246094 143.308594 93.46875 142.839844 93.6875 C 142.375 93.910156 141.933594 94.160156 141.496094 94.386719 C 139.746094 95.320312 138.128906 96.132812 136.757812 96.996094 C 136.066406 97.410156 135.417969 97.800781 134.8125 98.164062 C 134.511719 98.347656 134.21875 98.523438 133.941406 98.691406 C 133.671875 98.875 133.410156 99.050781 133.164062 99.214844 C 133.164062 99.214844 132.238281 99.835938 131.3125 100.457031 C 130.851562 100.765625 130.386719 101.074219 130.039062 101.308594 C 129.6875 101.535156 129.472656 101.710938 129.472656 101.710938 C 129.472656 101.710938 128.476562 102.429688 126.984375 103.507812 C 126.609375 103.777344 126.207031 104.066406 125.777344 104.375 C 125.367188 104.703125 124.929688 105.050781 124.480469 105.410156 C 123.582031 106.128906 122.613281 106.882812 121.667969 107.664062 C 119.832031 109.292969 117.957031 110.875 116.664062 112.191406 C 116.003906 112.832031 115.453125 113.363281 115.066406 113.738281 C 114.679688 114.109375 114.464844 114.328125 114.464844 114.328125 C 114.464844 114.328125 113.613281 115.214844 112.339844 116.542969 C 111.03125 117.839844 109.472656 119.738281 107.847656 121.582031 C 106.339844 123.519531 104.757812 125.40625 103.726562 126.933594 C 102.65625 128.433594 101.941406 129.433594 101.941406 129.433594 L 99.46875 133.148438 C 94.328125 141.167969 90.203125 149.898438 87.507812 159.097656 C 84.707031 168.269531 83.414062 177.886719 83.332031 187.5 L 83.328125 187.507812 L 83.328125 187.648438 L 83.332031 187.65625 C 83.414062 197.269531 84.707031 206.886719 87.507812 216.058594 C 90.203125 225.257812 94.328125 233.988281 99.46875 242.007812 L 101.941406 245.722656 C 101.941406 245.722656 102.65625 246.722656 103.726562 248.222656 C 104.761719 249.753906 106.339844 251.636719 107.847656 253.574219 C 109.472656 255.414062 111.03125 257.316406 112.339844 258.613281 C 113.613281 259.941406 114.464844 260.828125 114.464844 260.828125 C 114.464844 260.828125 114.679688 261.046875 115.066406 261.417969 C 115.453125 261.789062 116.003906 262.324219 116.664062 262.964844 C 117.957031 264.277344 119.832031 265.863281 121.667969 267.488281 C 122.613281 268.273438 123.582031 269.023438 124.480469 269.746094 C 124.929688 270.105469 125.367188 270.449219 125.777344 270.78125 C 126.207031 271.089844 126.609375 271.378906 126.984375 271.648438 C 128.476562 272.726562 129.472656 273.445312 129.472656 273.445312 C 129.472656 273.445312 129.6875 273.621094 130.039062 273.847656 C 130.386719 274.078125 130.851562 274.390625 131.3125 274.699219 C 132.238281 275.320312 133.164062 275.9375 133.164062 275.9375 C 133.414062 276.105469 133.671875 276.28125 133.941406 276.464844 C 134.21875 276.632812 134.511719 276.808594 134.8125 276.992188 C 135.417969 277.355469 136.066406 277.746094 136.757812 278.160156 C 138.128906 279.023438 139.746094 279.835938 141.496094 280.769531 C 141.9375 280.996094 142.378906 281.246094 142.84375 281.46875 C 143.308594 281.6875 143.785156 281.910156 144.273438 282.136719 C 145.246094 282.585938 146.253906 283.050781 147.292969 283.535156 C 149.421875 284.371094 151.644531 285.371094 154.070312 286.152344 C 163.640625 289.625 175.59375 291.78125 187.578125 291.828125 C 199.5625 291.78125 211.515625 289.625 221.085938 286.148438 C 223.507812 285.371094 225.734375 284.371094 227.863281 283.53125 C 228.902344 283.050781 229.910156 282.585938 230.882812 282.132812 C 231.371094 281.90625 231.847656 281.683594 232.3125 281.46875 C 232.777344 281.246094 233.21875 280.996094 233.660156 280.769531 C 235.410156 279.835938 237.027344 279.023438 238.398438 278.160156 C 239.089844 277.746094 239.738281 277.351562 240.34375 276.992188 C 240.644531 276.808594 240.9375 276.632812 241.214844 276.464844 C 241.484375 276.28125 241.742188 276.105469 241.992188 275.9375 C 241.992188 275.9375 242.917969 275.320312 243.84375 274.699219 C 244.304688 274.390625 244.769531 274.078125 245.117188 273.847656 C 245.464844 273.621094 245.683594 273.445312 245.683594 273.445312 C 245.683594 273.445312 246.679688 272.726562 248.171875 271.648438 C 248.542969 271.378906 248.949219 271.089844 249.375 270.78125 C 249.789062 270.449219 250.222656 270.105469 250.675781 269.746094 C 251.570312 269.023438 252.542969 268.273438 253.484375 267.488281 C 255.324219 265.863281 257.199219 264.277344 258.492188 262.964844 C 259.152344 262.324219 259.703125 261.789062 260.089844 261.417969 C 260.476562 261.046875 260.691406 260.828125 260.691406 260.828125 C 260.691406 260.828125 261.539062 259.941406 262.8125 258.613281 C 264.125 257.316406 265.683594 255.414062 267.308594 253.574219 C 268.816406 251.636719 270.394531 249.75 271.425781 248.222656 C 272.5 246.722656 273.214844 245.722656 273.214844 245.722656 L 275.683594 242.007812 C 280.828125 233.988281 284.953125 225.253906 287.644531 216.058594 C 290.445312 206.886719 291.738281 197.265625 291.824219 187.65625 L 291.828125 187.648438 L 291.828125 187.507812 " fill-opacity="1" fill-rule="nonzero"/></g><g clip-path="url(#ef82a87710)"><path fill="#d9d9d9" d="M 187.46875 286.5 C 132.925781 286.5 88.5 242.078125 88.5 187.46875 C 88.5 132.859375 132.925781 88.5 187.46875 88.5 C 242.011719 88.5 286.433594 132.925781 286.433594 187.46875 C 286.5 242.078125 242.078125 286.5 187.46875 286.5 Z M 187.46875 90.175781 C 133.796875 90.175781 90.175781 133.796875 90.175781 187.46875 C 90.175781 241.140625 133.863281 284.828125 187.46875 284.828125 C 241.070312 284.828125 284.828125 241.140625 284.828125 187.46875 C 284.828125 133.796875 241.140625 90.175781 187.46875 90.175781 Z M 187.46875 90.175781 " fill-opacity="1" fill-rule="nonzero"/></g><g fill="#192d5a" fill-opacity="0.4"><g transform="translate(137.691339, 204.156695)"><g><path d="M 29.238281 0.679688 C 48.023438 0.679688 58.902344 -7.308594 58.902344 -26.433594 C 58.902344 -47.769531 45.386719 -59.839844 25.925781 -59.839844 C 19.972656 -59.839844 11.476562 -59.839844 6.121094 -59.5 C 4.929688 -59.414062 3.996094 -58.476562 3.910156 -57.375 C 3.144531 -44.539062 2.039062 -22.183594 2.039062 -2.378906 C 2.039062 -1.105469 2.976562 -0.0859375 4.164062 0 C 8.160156 0.339844 21.757812 0.679688 29.238281 0.679688 Z M 23.882812 -14.703125 C 21.078125 -14.875 19.804688 -16.574219 19.71875 -19.890625 C 19.550781 -26.773438 19.464844 -34.425781 19.71875 -41.394531 C 19.804688 -43.773438 21.078125 -45.472656 23.203125 -45.558594 C 24.648438 -45.644531 25.414062 -45.730469 27.285156 -45.644531 C 35.953125 -45.558594 41.648438 -38.589844 41.648438 -27.371094 C 41.648438 -18.359375 36.039062 -14.621094 28.8125 -14.621094 C 27.199219 -14.621094 25.414062 -14.621094 23.882812 -14.703125 Z M 23.882812 -14.703125 "/></g></g></g><g fill="#192d5a" fill-opacity="1"><g transform="translate(133.934835, 200.400191)"><g><path d="M 29.238281 0.679688 C 48.023438 0.679688 58.902344 -7.308594 58.902344 -26.433594 C 58.902344 -47.769531 45.386719 -59.839844 25.925781 -59.839844 C 19.972656 -59.839844 11.476562 -59.839844 6.121094 -59.5 C 4.929688 -59.414062 3.996094 -58.476562 3.910156 -57.375 C 3.144531 -44.539062 2.039062 -22.183594 2.039062 -2.378906 C 2.039062 -1.105469 2.976562 -0.0859375 4.164062 0 C 8.160156 0.339844 21.757812 0.679688 29.238281 0.679688 Z M 23.882812 -14.703125 C 21.078125 -14.875 19.804688 -16.574219 19.71875 -19.890625 C 19.550781 -26.773438 19.464844 -34.425781 19.71875 -41.394531 C 19.804688 -43.773438 21.078125 -45.472656 23.203125 -45.558594 C 24.648438 -45.644531 25.414062 -45.730469 27.285156 -45.644531 C 35.953125 -45.558594 41.648438 -38.589844 41.648438 -27.371094 C 41.648438 -18.359375 36.039062 -14.621094 28.8125 -14.621094 C 27.199219 -14.621094 25.414062 -14.621094 23.882812 -14.703125 Z M 23.882812 -14.703125 "/></g></g></g><g fill="#192d5a" fill-opacity="0.4"><g transform="translate(178.081869, 228.63142)"><g><path d="M 12.15625 0.339844 C 14.195312 0.339844 17.765625 0.339844 19.890625 0 C 21.25 -0.171875 22.269531 -1.273438 22.097656 -2.636719 C 21.675781 -6.714844 19.550781 -12.496094 19.550781 -18.445312 C 19.464844 -20.570312 20.230469 -21.589844 21.503906 -21.675781 C 39.777344 -21.078125 55.078125 -29.238281 55.078125 -44.113281 C 55.078125 -54.484375 45.472656 -60.179688 29.152344 -60.179688 C 21.757812 -60.179688 11.476562 -59.921875 6.035156 -59.582031 C 4.929688 -59.5 3.996094 -58.5625 3.910156 -57.375 C 2.890625 -46.152344 2.039062 -21.078125 2.039062 -2.296875 C 2.039062 -1.019531 2.976562 -0.171875 4.164062 0 C 5.863281 0.171875 9.605469 0.339844 12.15625 0.339844 Z M 22.863281 -31.023438 C 20.996094 -30.9375 19.972656 -31.617188 19.804688 -33.234375 C 19.550781 -36.972656 19.550781 -41.394531 19.804688 -44.367188 C 19.972656 -45.730469 20.824219 -46.75 22.4375 -46.832031 C 23.882812 -46.917969 25.246094 -47.003906 27.113281 -47.003906 C 34.847656 -47.003906 38.25 -44.707031 38.25 -40.714844 C 38.25 -35.953125 33.320312 -31.195312 22.863281 -31.023438 Z M 22.863281 -31.023438 "/></g></g></g><g fill="#192d5a" fill-opacity="1"><g transform="translate(174.325365, 224.874916)"><g><path d="M 12.15625 0.339844 C 14.195312 0.339844 17.765625 0.339844 19.890625 0 C 21.25 -0.171875 22.269531 -1.273438 22.097656 -2.636719 C 21.675781 -6.714844 19.550781 -12.496094 19.550781 -18.445312 C 19.464844 -20.570312 20.230469 -21.589844 21.503906 -21.675781 C 39.777344 -21.078125 55.078125 -29.238281 55.078125 -44.113281 C 55.078125 -54.484375 45.472656 -60.179688 29.152344 -60.179688 C 21.757812 -60.179688 11.476562 -59.921875 6.035156 -59.582031 C 4.929688 -59.5 3.996094 -58.5625 3.910156 -57.375 C 2.890625 -46.152344 2.039062 -21.078125 2.039062 -2.296875 C 2.039062 -1.019531 2.976562 -0.171875 4.164062 0 C 5.863281 0.171875 9.605469 0.339844 12.15625 0.339844 Z M 22.863281 -31.023438 C 20.996094 -30.9375 19.972656 -31.617188 19.804688 -33.234375 C 19.550781 -36.972656 19.550781 -41.394531 19.804688 -44.367188 C 19.972656 -45.730469 20.824219 -46.75 22.4375 -46.832031 C 23.882812 -46.917969 25.246094 -47.003906 27.113281 -47.003906 C 34.847656 -47.003906 38.25 -44.707031 38.25 -40.714844 C 38.25 -35.953125 33.320312 -31.195312 22.863281 -31.023438 Z M 22.863281 -31.023438 "/></g></g></g><g fill="#192d5a" fill-opacity="1"><g transform="translate(136.418825, 130.167475)"><g><path d="M 0.84375 -0.65625 L -4.390625 -7.375 L -2.109375 -9.15625 C -1.566406 -9.570312 -1.03125 -9.847656 -0.5 -9.984375 C 0.03125 -10.117188 0.546875 -10.140625 1.046875 -10.046875 C 1.554688 -9.953125 2.039062 -9.753906 2.5 -9.453125 C 2.957031 -9.148438 3.363281 -8.769531 3.71875 -8.3125 C 4.113281 -7.800781 4.394531 -7.28125 4.5625 -6.75 C 4.738281 -6.226562 4.800781 -5.707031 4.75 -5.1875 C 4.695312 -4.675781 4.535156 -4.179688 4.265625 -3.703125 C 3.992188 -3.234375 3.613281 -2.8125 3.125 -2.4375 Z M 3.0625 -7.78125 C 2.738281 -8.195312 2.382812 -8.523438 2 -8.765625 C 1.625 -9.015625 1.234375 -9.179688 0.828125 -9.265625 C 0.421875 -9.347656 0.0078125 -9.332031 -0.40625 -9.21875 C -0.832031 -9.101562 -1.25 -8.890625 -1.65625 -8.578125 L -3.28125 -7.3125 L 1.03125 -1.765625 L 2.65625 -3.03125 C 3.070312 -3.351562 3.382812 -3.707031 3.59375 -4.09375 C 3.8125 -4.488281 3.925781 -4.894531 3.9375 -5.3125 C 3.957031 -5.726562 3.894531 -6.144531 3.75 -6.5625 C 3.601562 -6.976562 3.375 -7.382812 3.0625 -7.78125 Z M 3.0625 -7.78125 "/></g></g></g><g fill="#192d5a" fill-opacity="1"><g transform="translate(143.985186, 124.357208)"><g><path d="M -1.21875 -9.203125 L -0.609375 -9.578125 L 6.8125 -4.109375 L 6.046875 -3.640625 L 3.734375 -5.359375 L 0.453125 -3.390625 L 0.890625 -0.546875 L 0.125 -0.078125 Z M 3.21875 -5.8125 L -0.40625 -8.546875 L 0.265625 -4.03125 Z M 3.21875 -5.8125 "/></g></g></g><g fill="#192d5a" fill-opacity="1"><g transform="translate(151.804222, 119.721438)"><g><path d="M 0.96875 -0.4375 L -2.546875 -8.1875 L 0.734375 -9.6875 C 1.066406 -9.832031 1.40625 -9.898438 1.75 -9.890625 C 2.09375 -9.878906 2.414062 -9.800781 2.71875 -9.65625 C 3.03125 -9.519531 3.304688 -9.332031 3.546875 -9.09375 C 3.796875 -8.863281 3.988281 -8.597656 4.125 -8.296875 C 4.257812 -8.003906 4.335938 -7.710938 4.359375 -7.421875 C 4.390625 -7.128906 4.378906 -6.84375 4.328125 -6.5625 C 4.273438 -6.289062 4.175781 -6.035156 4.03125 -5.796875 C 3.882812 -5.554688 3.695312 -5.347656 3.46875 -5.171875 L 6.71875 -3.046875 L 5.859375 -2.65625 L 2.734375 -4.6875 L 0.4375 -3.640625 L 1.734375 -0.78125 Z M 0.125 -4.328125 L 2.65625 -5.484375 C 2.882812 -5.585938 3.066406 -5.726562 3.203125 -5.90625 C 3.335938 -6.09375 3.4375 -6.300781 3.5 -6.53125 C 3.5625 -6.757812 3.582031 -6.992188 3.5625 -7.234375 C 3.539062 -7.472656 3.472656 -7.710938 3.359375 -7.953125 C 3.253906 -8.179688 3.109375 -8.382812 2.921875 -8.5625 C 2.742188 -8.738281 2.546875 -8.875 2.328125 -8.96875 C 2.117188 -9.0625 1.894531 -9.113281 1.65625 -9.125 C 1.425781 -9.132812 1.203125 -9.085938 0.984375 -8.984375 L -1.484375 -7.859375 Z M 0.125 -4.328125 "/></g></g></g><g fill="#192d5a" fill-opacity="1"><g transform="translate(159.861531, 116.126089)"><g><path d="M 1.015625 -0.328125 L -1.609375 -8.421875 L -0.8125 -8.6875 L 0.71875 -3.984375 L 3.640625 -10.125 L 4.546875 -10.421875 L 2.375 -5.796875 L 7.328125 -2.375 L 6.453125 -2.09375 L 2.03125 -5.15625 L 1.015625 -3.078125 L 1.8125 -0.59375 Z M 1.015625 -0.328125 "/></g></g></g><g fill="#192d5a" fill-opacity="1"><g transform="translate(168.292696, 113.546242)"><g><path d="M 1.03125 -0.234375 L -0.90625 -8.53125 L -0.078125 -8.734375 L 1.859375 -0.4375 Z M 1.03125 -0.234375 "/></g></g></g><g fill="#192d5a" fill-opacity="1"><g transform="translate(172.177205, 112.496774)"><g><path d="M 8.53125 -1.109375 L 7.625 -8.046875 L 5.265625 -2.28125 L 4.765625 -2.203125 L 0.984375 -7.1875 L 1.890625 -0.25 L 1.046875 -0.140625 L -0.046875 -8.578125 L 0.828125 -8.6875 L 4.859375 -3.34375 L 7.4375 -9.546875 L 8.28125 -9.65625 L 9.375 -1.21875 Z M 8.53125 -1.109375 "/></g></g></g><g fill="#192d5a" fill-opacity="1"><g transform="translate(183.660305, 111.246082)"><g/></g></g><g fill="#192d5a" fill-opacity="1"><g transform="translate(187.829019, 111.083581)"><g><path d="M 1.0625 0.0625 L 1.53125 -8.4375 L 5.0625 -8.25 C 5.425781 -8.226562 5.753906 -8.128906 6.046875 -7.953125 C 6.347656 -7.785156 6.601562 -7.570312 6.8125 -7.3125 C 7.019531 -7.050781 7.175781 -6.753906 7.28125 -6.421875 C 7.394531 -6.097656 7.441406 -5.769531 7.421875 -5.4375 C 7.398438 -5.082031 7.320312 -4.75 7.1875 -4.4375 C 7.050781 -4.132812 6.867188 -3.863281 6.640625 -3.625 C 6.410156 -3.382812 6.144531 -3.195312 5.84375 -3.0625 C 5.539062 -2.925781 5.207031 -2.867188 4.84375 -2.890625 L 2.078125 -3.03125 L 1.90625 0.109375 Z M 2.109375 -3.78125 L 4.828125 -3.640625 C 5.078125 -3.628906 5.304688 -3.671875 5.515625 -3.765625 C 5.722656 -3.867188 5.898438 -4.003906 6.046875 -4.171875 C 6.203125 -4.335938 6.328125 -4.53125 6.421875 -4.75 C 6.515625 -4.976562 6.566406 -5.222656 6.578125 -5.484375 C 6.597656 -5.742188 6.566406 -5.992188 6.484375 -6.234375 C 6.410156 -6.484375 6.300781 -6.695312 6.15625 -6.875 C 6.007812 -7.0625 5.832031 -7.210938 5.625 -7.328125 C 5.425781 -7.441406 5.210938 -7.503906 4.984375 -7.515625 L 2.328125 -7.65625 Z M 2.109375 -3.78125 "/></g></g></g><g fill="#192d5a" fill-opacity="1"><g transform="translate(196.248249, 111.55073)"><g><path d="M 4.421875 0.84375 C 3.835938 0.738281 3.320312 0.523438 2.875 0.203125 C 2.4375 -0.117188 2.078125 -0.507812 1.796875 -0.96875 C 1.523438 -1.4375 1.335938 -1.941406 1.234375 -2.484375 C 1.140625 -3.023438 1.140625 -3.566406 1.234375 -4.109375 C 1.328125 -4.660156 1.519531 -5.175781 1.8125 -5.65625 C 2.101562 -6.144531 2.460938 -6.550781 2.890625 -6.875 C 3.316406 -7.207031 3.789062 -7.445312 4.3125 -7.59375 C 4.832031 -7.75 5.375 -7.773438 5.9375 -7.671875 C 6.519531 -7.566406 7.023438 -7.347656 7.453125 -7.015625 C 7.890625 -6.691406 8.242188 -6.296875 8.515625 -5.828125 C 8.796875 -5.367188 8.988281 -4.863281 9.09375 -4.3125 C 9.195312 -3.769531 9.203125 -3.238281 9.109375 -2.71875 C 9.003906 -2.15625 8.804688 -1.632812 8.515625 -1.15625 C 8.222656 -0.6875 7.863281 -0.285156 7.4375 0.046875 C 7.019531 0.378906 6.550781 0.617188 6.03125 0.765625 C 5.519531 0.910156 4.984375 0.9375 4.421875 0.84375 Z M 2.0625 -3.96875 C 1.976562 -3.507812 1.972656 -3.054688 2.046875 -2.609375 C 2.117188 -2.160156 2.265625 -1.75 2.484375 -1.375 C 2.703125 -1 2.984375 -0.679688 3.328125 -0.421875 C 3.679688 -0.160156 4.09375 0.0078125 4.5625 0.09375 C 5.03125 0.175781 5.472656 0.144531 5.890625 0 C 6.304688 -0.132812 6.679688 -0.34375 7.015625 -0.625 C 7.347656 -0.90625 7.625 -1.242188 7.84375 -1.640625 C 8.0625 -2.035156 8.207031 -2.453125 8.28125 -2.890625 C 8.363281 -3.335938 8.363281 -3.785156 8.28125 -4.234375 C 8.195312 -4.679688 8.046875 -5.085938 7.828125 -5.453125 C 7.609375 -5.828125 7.328125 -6.144531 6.984375 -6.40625 C 6.640625 -6.675781 6.238281 -6.847656 5.78125 -6.921875 C 5.300781 -7.003906 4.851562 -6.976562 4.4375 -6.84375 C 4.019531 -6.707031 3.644531 -6.492188 3.3125 -6.203125 C 2.976562 -5.921875 2.703125 -5.582031 2.484375 -5.1875 C 2.273438 -4.800781 2.132812 -4.394531 2.0625 -3.96875 Z M 2.0625 -3.96875 "/></g></g></g><g fill="#192d5a" fill-opacity="1"><g transform="translate(205.983076, 113.18212)"><g><path d="M 6.734375 -6.65625 L 7.484375 -6.40625 L 7.671875 -3.171875 L 9.765625 -5.640625 L 10.546875 -5.390625 L 7.96875 -2.421875 L 8.296875 1.75 L 13.625 -4.421875 L 14.484375 -4.140625 L 8.359375 2.796875 L 7.640625 2.5625 L 7.296875 -2 L 4.234375 1.421875 L 3.5625 1.1875 L 2.84375 -8.03125 L 3.703125 -7.75 L 4.234375 0.390625 L 7 -2.75 Z M 6.734375 -6.65625 "/></g></g></g><g fill="#192d5a" fill-opacity="1"><g transform="translate(218.636445, 117.678812)"><g><path d="M 6.40625 2.359375 L 6.078125 3.03125 L 0.953125 0.46875 L 4.75 -7.15625 L 9.78125 -4.640625 L 9.453125 -3.984375 L 5.171875 -6.125 L 3.796875 -3.359375 L 7.53125 -1.484375 L 7.21875 -0.859375 L 3.484375 -2.734375 L 2.03125 0.171875 Z M 6.40625 2.359375 "/></g></g></g><g fill="#192d5a" fill-opacity="1"><g transform="translate(226.057012, 121.452159)"><g><path d="M 0.890625 0.578125 L 5.46875 -6.59375 L 6.1875 -6.140625 L 2.015625 0.40625 L 6.15625 3.046875 L 5.75 3.671875 Z M 0.890625 0.578125 "/></g></g></g><g fill="#192d5a" fill-opacity="1"><g transform="translate(232.787546, 125.814173)"><g><path d="M 0.828125 0.65625 L 6.125 -6 L 6.78125 -5.46875 L 1.953125 0.59375 L 5.8125 3.65625 L 5.34375 4.25 Z M 0.828125 0.65625 "/></g></g></g><g fill="#192d5a" fill-opacity="1"><g transform="translate(117.397175, 237.485793)"><g><path d="M 9.171875 0.609375 C 9.242188 0.253906 9.222656 -0.128906 9.109375 -0.546875 C 9.003906 -0.972656 8.796875 -1.390625 8.484375 -1.796875 C 8.035156 -2.390625 7.59375 -2.734375 7.15625 -2.828125 C 6.71875 -2.929688 6.304688 -2.835938 5.921875 -2.546875 C 5.722656 -2.390625 5.585938 -2.222656 5.515625 -2.046875 C 5.441406 -1.878906 5.410156 -1.6875 5.421875 -1.46875 C 5.429688 -1.25 5.492188 -0.988281 5.609375 -0.6875 C 5.734375 -0.382812 5.878906 -0.046875 6.046875 0.328125 C 6.242188 0.753906 6.40625 1.144531 6.53125 1.5 C 6.65625 1.863281 6.722656 2.195312 6.734375 2.5 C 6.753906 2.8125 6.703125 3.097656 6.578125 3.359375 C 6.460938 3.628906 6.253906 3.878906 5.953125 4.109375 C 5.628906 4.347656 5.304688 4.492188 4.984375 4.546875 C 4.671875 4.609375 4.351562 4.585938 4.03125 4.484375 C 3.71875 4.378906 3.40625 4.203125 3.09375 3.953125 C 2.789062 3.710938 2.503906 3.414062 2.234375 3.0625 C 1.441406 2.019531 1.082031 0.867188 1.15625 -0.390625 L 1.953125 -0.484375 C 1.921875 -0.265625 1.910156 -0.0234375 1.921875 0.234375 C 1.941406 0.492188 1.988281 0.757812 2.0625 1.03125 C 2.132812 1.300781 2.234375 1.570312 2.359375 1.84375 C 2.492188 2.113281 2.660156 2.378906 2.859375 2.640625 C 3.265625 3.171875 3.679688 3.515625 4.109375 3.671875 C 4.535156 3.828125 4.941406 3.757812 5.328125 3.46875 C 5.546875 3.300781 5.691406 3.117188 5.765625 2.921875 C 5.847656 2.734375 5.875 2.507812 5.84375 2.25 C 5.820312 2 5.753906 1.71875 5.640625 1.40625 C 5.523438 1.101562 5.375 0.75 5.1875 0.34375 C 5 -0.0703125 4.84375 -0.445312 4.71875 -0.78125 C 4.601562 -1.125 4.546875 -1.4375 4.546875 -1.71875 C 4.546875 -2 4.597656 -2.253906 4.703125 -2.484375 C 4.816406 -2.722656 5.015625 -2.945312 5.296875 -3.15625 C 5.609375 -3.394531 5.929688 -3.550781 6.265625 -3.625 C 6.597656 -3.695312 6.925781 -3.6875 7.25 -3.59375 C 7.582031 -3.5 7.90625 -3.335938 8.21875 -3.109375 C 8.53125 -2.878906 8.820312 -2.585938 9.09375 -2.234375 C 9.4375 -1.785156 9.671875 -1.332031 9.796875 -0.875 C 9.929688 -0.414062 9.976562 0.046875 9.9375 0.515625 Z M 9.171875 0.609375 "/></g></g></g><g fill="#192d5a" fill-opacity="1"><g transform="translate(123.032529, 244.768675)"><g><path d="M 3.078125 3.28125 C 2.671875 2.851562 2.382812 2.375 2.21875 1.84375 C 2.050781 1.320312 1.988281 0.796875 2.03125 0.265625 C 2.082031 -0.265625 2.222656 -0.78125 2.453125 -1.28125 C 2.691406 -1.78125 3.007812 -2.222656 3.40625 -2.609375 C 3.8125 -2.992188 4.269531 -3.296875 4.78125 -3.515625 C 5.300781 -3.734375 5.832031 -3.851562 6.375 -3.875 C 6.914062 -3.894531 7.4375 -3.8125 7.9375 -3.625 C 8.445312 -3.4375 8.898438 -3.132812 9.296875 -2.71875 C 9.710938 -2.289062 10 -1.816406 10.15625 -1.296875 C 10.320312 -0.773438 10.378906 -0.25 10.328125 0.28125 C 10.273438 0.820312 10.128906 1.34375 9.890625 1.84375 C 9.648438 2.34375 9.335938 2.78125 8.953125 3.15625 C 8.546875 3.550781 8.085938 3.851562 7.578125 4.0625 C 7.066406 4.28125 6.539062 4.394531 6 4.40625 C 5.457031 4.425781 4.9375 4.34375 4.4375 4.15625 C 3.9375 3.976562 3.484375 3.6875 3.078125 3.28125 Z M 4 -2 C 3.664062 -1.675781 3.394531 -1.3125 3.1875 -0.90625 C 2.988281 -0.5 2.867188 -0.0820312 2.828125 0.34375 C 2.785156 0.78125 2.828125 1.207031 2.953125 1.625 C 3.078125 2.039062 3.300781 2.414062 3.625 2.75 C 3.957031 3.09375 4.332031 3.332031 4.75 3.46875 C 5.175781 3.613281 5.601562 3.664062 6.03125 3.625 C 6.46875 3.582031 6.890625 3.46875 7.296875 3.28125 C 7.703125 3.09375 8.066406 2.84375 8.390625 2.53125 C 8.722656 2.207031 8.988281 1.835938 9.1875 1.421875 C 9.382812 1.015625 9.5 0.597656 9.53125 0.171875 C 9.570312 -0.242188 9.53125 -0.660156 9.40625 -1.078125 C 9.289062 -1.492188 9.066406 -1.867188 8.734375 -2.203125 C 8.398438 -2.546875 8.023438 -2.785156 7.609375 -2.921875 C 7.191406 -3.066406 6.765625 -3.117188 6.328125 -3.078125 C 5.890625 -3.035156 5.46875 -2.921875 5.0625 -2.734375 C 4.664062 -2.546875 4.3125 -2.300781 4 -2 Z M 4 -2 "/></g></g></g><g fill="#192d5a" fill-opacity="1"><g transform="translate(130.753252, 252.501296)"><g><path d="M 0.828125 0.671875 L 6.21875 -5.921875 L 10.546875 -2.375 L 10.078125 -1.8125 L 6.390625 -4.828125 L 4.40625 -2.390625 L 7.515625 0.15625 L 7.078125 0.6875 L 3.96875 -1.859375 L 1.46875 1.203125 Z M 0.828125 0.671875 "/></g></g></g><g fill="#192d5a" fill-opacity="1"><g transform="translate(137.735661, 258.088731)"><g><path d="M 10.203125 -2.625 L 7.65625 -4.28125 L 3.40625 2.234375 L 2.703125 1.765625 L 6.953125 -4.75 L 4.421875 -6.40625 L 4.828125 -7.015625 L 10.609375 -3.234375 Z M 10.203125 -2.625 "/></g></g></g><g fill="#192d5a" fill-opacity="1"><g transform="translate(145.538782, 263.237278)"><g><path d="M 7.453125 -5.84375 L 8.171875 -5.5 L 7.984375 -2.25 L 10.359375 -4.484375 L 11.09375 -4.140625 L 8.203125 -1.484375 L 8.03125 2.703125 L 14.046875 -2.8125 L 14.875 -2.421875 L 7.96875 3.75 L 7.296875 3.421875 L 7.484375 -1.140625 L 4.046875 1.90625 L 3.390625 1.59375 L 3.75 -7.640625 L 4.578125 -7.265625 L 4.15625 0.890625 L 7.265625 -1.921875 Z M 7.453125 -5.84375 "/></g></g></g><g fill="#192d5a" fill-opacity="1"><g transform="translate(158.863345, 269.158631)"><g><path d="M 6.015625 -7.078125 L 6.703125 -6.875 L 7.609375 2.3125 L 6.765625 2.046875 L 6.484375 -0.8125 L 2.8125 -1.921875 L 1 0.296875 L 0.140625 0.046875 Z M 6.484375 -1.515625 L 6.078125 -6.03125 L 3.1875 -2.515625 Z M 6.484375 -1.515625 "/></g></g></g><g fill="#192d5a" fill-opacity="1"><g transform="translate(168.490834, 271.956826)"><g><path d="M 1.046875 0.1875 L 2.5625 -8.1875 L 6.109375 -7.546875 C 6.472656 -7.484375 6.789062 -7.347656 7.0625 -7.140625 C 7.34375 -6.929688 7.566406 -6.679688 7.734375 -6.390625 C 7.910156 -6.109375 8.03125 -5.800781 8.09375 -5.46875 C 8.164062 -5.132812 8.175781 -4.800781 8.125 -4.46875 C 8.0625 -4.164062 7.957031 -3.878906 7.8125 -3.609375 C 7.675781 -3.347656 7.503906 -3.117188 7.296875 -2.921875 C 7.097656 -2.734375 6.867188 -2.582031 6.609375 -2.46875 C 6.347656 -2.363281 6.078125 -2.304688 5.796875 -2.296875 L 7.25 1.3125 L 6.328125 1.140625 L 4.90625 -2.3125 L 2.4375 -2.75 L 1.875 0.34375 Z M 2.5625 -3.484375 L 5.296875 -3 C 5.546875 -2.945312 5.78125 -2.957031 6 -3.03125 C 6.21875 -3.101562 6.414062 -3.210938 6.59375 -3.359375 C 6.769531 -3.515625 6.914062 -3.695312 7.03125 -3.90625 C 7.15625 -4.125 7.242188 -4.363281 7.296875 -4.625 C 7.335938 -4.882812 7.332031 -5.132812 7.28125 -5.375 C 7.238281 -5.625 7.15625 -5.847656 7.03125 -6.046875 C 6.90625 -6.242188 6.75 -6.410156 6.5625 -6.546875 C 6.375 -6.691406 6.164062 -6.785156 5.9375 -6.828125 L 3.265625 -7.3125 Z M 2.5625 -3.484375 "/></g></g></g><g fill="#192d5a" fill-opacity="1"><g transform="translate(178.084672, 273.571037)"><g><path d="M 6.828125 -0.28125 L 6.78125 0.46875 L 1.0625 0.078125 L 1.640625 -8.421875 L 7.25 -8.046875 L 7.203125 -7.3125 L 2.4375 -7.640625 L 2.234375 -4.5625 L 6.390625 -4.265625 L 6.328125 -3.5625 L 2.171875 -3.859375 L 1.953125 -0.625 Z M 6.828125 -0.28125 "/></g></g></g><g fill="#192d5a" fill-opacity="1"><g transform="translate(187.149668, 274.03214)"><g/></g></g><g fill="#192d5a" fill-opacity="1"><g transform="translate(191.983793, 273.983098)"><g><path d="M 6.6875 -1.390625 L 6.765625 -0.640625 L 1.0625 -0.09375 L 0.265625 -8.578125 L 5.859375 -9.109375 L 5.921875 -8.375 L 1.15625 -7.9375 L 1.453125 -4.875 L 5.609375 -5.265625 L 5.671875 -4.5625 L 1.515625 -4.171875 L 1.8125 -0.9375 Z M 6.6875 -1.390625 "/></g></g></g><g fill="#192d5a" fill-opacity="1"><g transform="translate(201.178441, 273.054695)"><g><path d="M 0.390625 -7.203125 L 1.859375 -0.40625 L 1.03125 -0.21875 L -0.78125 -8.546875 L -0.140625 -8.6875 L 6.890625 -2.953125 L 5.375 -9.890625 L 6.203125 -10.0625 L 8.015625 -1.734375 L 7.296875 -1.578125 Z M 0.390625 -7.203125 "/></g></g></g><g fill="#192d5a" fill-opacity="1"><g transform="translate(212.117358, 270.528866)"><g><path d="M 6.375 -3.59375 C 5.925781 -2.5 5.210938 -1.78125 4.234375 -1.4375 C 3.703125 -1.25 3.164062 -1.191406 2.625 -1.265625 C 2.082031 -1.335938 1.578125 -1.503906 1.109375 -1.765625 C 0.640625 -2.035156 0.222656 -2.378906 -0.140625 -2.796875 C -0.503906 -3.210938 -0.773438 -3.675781 -0.953125 -4.1875 C -1.148438 -4.726562 -1.238281 -5.273438 -1.21875 -5.828125 C -1.207031 -6.378906 -1.101562 -6.898438 -0.90625 -7.390625 C -0.71875 -7.890625 -0.429688 -8.328125 -0.046875 -8.703125 C 0.328125 -9.085938 0.78125 -9.375 1.3125 -9.5625 C 1.695312 -9.695312 2.066406 -9.78125 2.421875 -9.8125 C 2.773438 -9.84375 3.109375 -9.828125 3.421875 -9.765625 C 3.734375 -9.703125 4.015625 -9.59375 4.265625 -9.4375 C 4.523438 -9.289062 4.769531 -9.113281 5 -8.90625 L 4.53125 -8.28125 C 4.09375 -8.6875 3.617188 -8.929688 3.109375 -9.015625 C 2.597656 -9.097656 2.078125 -9.046875 1.546875 -8.859375 C 1.097656 -8.703125 0.726562 -8.460938 0.4375 -8.140625 C 0.144531 -7.816406 -0.0664062 -7.457031 -0.203125 -7.0625 C -0.347656 -6.664062 -0.414062 -6.238281 -0.40625 -5.78125 C -0.394531 -5.332031 -0.3125 -4.894531 -0.15625 -4.46875 C 0 -4.019531 0.226562 -3.617188 0.53125 -3.265625 C 0.832031 -2.910156 1.171875 -2.625 1.546875 -2.40625 C 1.929688 -2.195312 2.335938 -2.066406 2.765625 -2.015625 C 3.191406 -1.972656 3.617188 -2.023438 4.046875 -2.171875 C 4.503906 -2.335938 4.90625 -2.601562 5.25 -2.96875 C 5.601562 -3.332031 5.878906 -3.816406 6.078125 -4.421875 L 5.609375 -5.765625 L 3.828125 -5.125 L 3.609375 -5.734375 L 6.078125 -6.609375 L 7.484375 -2.65625 L 6.796875 -2.421875 Z M 6.375 -3.59375 "/></g></g></g><g fill="#192d5a" fill-opacity="1"><g transform="translate(221.83717, 266.857631)"><g><path d="M 0.96875 -0.4375 L -2.578125 -8.171875 L -1.8125 -8.53125 L 1.734375 -0.796875 Z M 0.96875 -0.4375 "/></g></g></g><g fill="#192d5a" fill-opacity="1"><g transform="translate(226.226999, 264.912846)"><g><path d="M -1.8125 -6.984375 L 1.65625 -0.953125 L 0.921875 -0.53125 L -3.328125 -7.90625 L -2.765625 -8.234375 L 5.671875 -4.90625 L 2.125 -11.046875 L 2.859375 -11.46875 L 7.109375 -4.09375 L 6.46875 -3.734375 Z M -1.8125 -6.984375 "/></g></g></g><g fill="#192d5a" fill-opacity="1"><g transform="translate(235.835055, 259.173646)"><g><path d="M 4.984375 -4.671875 L 5.4375 -4.078125 L 0.84375 -0.640625 L -4.265625 -7.453125 L 0.25 -10.8125 L 0.703125 -10.234375 L -3.125 -7.375 L -1.28125 -4.90625 L 2.046875 -7.40625 L 2.46875 -6.84375 L -0.859375 -4.34375 L 1.078125 -1.734375 Z M 4.984375 -4.671875 "/></g></g></g><g fill="#192d5a" fill-opacity="1"><g transform="translate(243.130357, 253.588633)"><g><path d="M 4.453125 -5.171875 L 4.96875 -4.625 L 0.78125 -0.71875 L -5.015625 -6.953125 L -0.90625 -10.796875 L -0.40625 -10.25 L -3.90625 -6.984375 L -1.8125 -4.734375 L 1.25 -7.578125 L 1.734375 -7.0625 L -1.328125 -4.21875 L 0.875 -1.84375 Z M 4.453125 -5.171875 "/></g></g></g><g fill="#192d5a" fill-opacity="1"><g transform="translate(249.802373, 247.251211)"><g><path d="M 0.6875 -0.8125 L -5.765625 -6.359375 L -3.40625 -9.09375 C -3.164062 -9.363281 -2.882812 -9.566406 -2.5625 -9.703125 C -2.25 -9.835938 -1.925781 -9.90625 -1.59375 -9.90625 C -1.257812 -9.914062 -0.929688 -9.863281 -0.609375 -9.75 C -0.285156 -9.644531 0 -9.484375 0.25 -9.265625 C 0.488281 -9.054688 0.679688 -8.820312 0.828125 -8.5625 C 0.984375 -8.3125 1.09375 -8.050781 1.15625 -7.78125 C 1.226562 -7.507812 1.25 -7.234375 1.21875 -6.953125 C 1.1875 -6.679688 1.101562 -6.414062 0.96875 -6.15625 L 4.8125 -5.59375 L 4.203125 -4.875 L 0.515625 -5.40625 L -1.125 -3.5 L 1.25 -1.453125 Z M -1.703125 -3.984375 L 0.109375 -6.078125 C 0.265625 -6.273438 0.367188 -6.484375 0.421875 -6.703125 C 0.472656 -6.929688 0.476562 -7.160156 0.4375 -7.390625 C 0.394531 -7.617188 0.3125 -7.835938 0.1875 -8.046875 C 0.0625 -8.265625 -0.0976562 -8.457031 -0.296875 -8.625 C -0.492188 -8.789062 -0.707031 -8.914062 -0.9375 -9 C -1.175781 -9.082031 -1.410156 -9.125 -1.640625 -9.125 C -1.878906 -9.125 -2.109375 -9.078125 -2.328125 -8.984375 C -2.554688 -8.890625 -2.742188 -8.753906 -2.890625 -8.578125 L -4.65625 -6.53125 Z M -1.703125 -3.984375 "/></g></g></g><g fill="#192d5a" fill-opacity="1"><g transform="translate(255.939672, 239.847907)"><g/></g></g></svg>